<?xml version="1.0" encoding="UTF-8" standalone="no"?>
<!-- Created with Inkscape (http://www.inkscape.org/) -->

<svg
   width="120.16981mm"
   height="109.99599mm"
   viewBox="0 0 120.16981 109.996"
   version="1.1"
   id="svg5"
   inkscape:version="1.1.2 (b8e25be833, 2022-02-05)"
   sodipodi:docname="nobg_win_computer.svg"
   xmlns:inkscape="http://www.inkscape.org/namespaces/inkscape"
   xmlns:sodipodi="http://sodipodi.sourceforge.net/DTD/sodipodi-0.dtd"
   xmlns="http://www.w3.org/2000/svg"
   xmlns:svg="http://www.w3.org/2000/svg">
  <sodipodi:namedview
     id="namedview7"
     pagecolor="#ffffff"
     bordercolor="#666666"
     borderopacity="1.0"
     inkscape:pageshadow="2"
     inkscape:pageopacity="0.0"
     inkscape:pagecheckerboard="0"
     inkscape:document-units="mm"
     showgrid="false"
     inkscape:zoom="1.0469406"
     inkscape:cx="103.6353"
     inkscape:cy="232.10486"
     inkscape:window-width="1920"
     inkscape:window-height="1017"
     inkscape:window-x="-8"
     inkscape:window-y="-8"
     inkscape:window-maximized="1"
     inkscape:current-layer="g10668"
     inkscape:snap-bbox="true"
     inkscape:bbox-paths="true"
     inkscape:bbox-nodes="true"
     inkscape:snap-bbox-edge-midpoints="true"
     inkscape:snap-bbox-midpoints="true"
     inkscape:snap-center="true"
     inkscape:snap-text-baseline="true"
     inkscape:snap-page="true"
     inkscape:snap-object-midpoints="true"
     inkscape:snap-midpoints="true"
     inkscape:snap-smooth-nodes="true"
     inkscape:snap-intersection-paths="true"
     inkscape:object-paths="true">
    <inkscape:grid
       type="xygrid"
       id="grid6350"
       originx="-36.396368"
       originy="-39.137345" />
  </sodipodi:namedview>
  <defs
     id="defs2">
    <clipPath
       clipPathUnits="userSpaceOnUse"
       id="clipPath6155">
      <circle
         style="display:inline;fill:none;stroke:#000000;stroke-width:2.47567;stroke-miterlimit:10;stroke-dasharray:none;stroke-opacity:1;stop-color:#000000"
         id="circle6157"
         cx="105.7906"
         cy="136.88448"
         r="71.49231" />
    </clipPath>
    <clipPath
       clipPathUnits="userSpaceOnUse"
       id="clipPath6159">
      <circle
         style="display:inline;fill:none;stroke:#000000;stroke-width:2.47567;stroke-miterlimit:10;stroke-dasharray:none;stroke-opacity:1;stop-color:#000000"
         id="circle6161"
         cx="105.7906"
         cy="136.88448"
         r="71.49231" />
    </clipPath>
    <clipPath
       clipPathUnits="userSpaceOnUse"
       id="clipPath6163">
      <circle
         style="display:inline;fill:none;stroke:#000000;stroke-width:2.47567;stroke-miterlimit:10;stroke-dasharray:none;stroke-opacity:1;stop-color:#000000"
         id="circle6165"
         cx="105.7906"
         cy="136.88448"
         r="71.49231" />
    </clipPath>
    <clipPath
       clipPathUnits="userSpaceOnUse"
       id="clipPath6155-2">
      <circle
         style="display:inline;fill:none;stroke:#000000;stroke-width:2.47567;stroke-miterlimit:10;stroke-dasharray:none;stroke-opacity:1;stop-color:#000000"
         id="circle6157-7"
         cx="105.7906"
         cy="136.88448"
         r="71.49231" />
    </clipPath>
    <clipPath
       clipPathUnits="userSpaceOnUse"
       id="clipPath6159-4">
      <circle
         style="display:inline;fill:none;stroke:#000000;stroke-width:2.47567;stroke-miterlimit:10;stroke-dasharray:none;stroke-opacity:1;stop-color:#000000"
         id="circle6161-0"
         cx="105.7906"
         cy="136.88448"
         r="71.49231" />
    </clipPath>
  </defs>
  <g
     inkscape:groupmode="layer"
     id="layer2"
     inkscape:label="bg"
     style="display:inline"
     transform="translate(-73.113113,-107.10289)" />
  <g
     inkscape:groupmode="layer"
     id="layer6"
     inkscape:label="computer"
     style="display:inline"
     transform="translate(-36.396367,-39.137338)">
    <g
       id="g10668"
       transform="matrix(1.8474837,0,0,1.8474837,-30.191225,-31.119061)">
      <rect
         style="fill:#ecc416;fill-opacity:1;stroke:#000000;stroke-width:2.5;stroke-miterlimit:10;stroke-dasharray:none;stroke-opacity:1;stop-color:#000000"
         id="rect6394"
         width="62.545124"
         height="43.60289"
         x="37.292316"
         y="39.278156"
         ry="8.9350185" />
      <rect
         style="fill:#efeded;fill-opacity:1;stroke:#000000;stroke-width:2.5;stroke-miterlimit:10;stroke-dasharray:none;stroke-opacity:1;stop-color:#000000"
         id="rect6394-1"
         width="50.516041"
         height="30.954645"
         x="43.306858"
         y="45.60228"
         ry="6.3431649" />
      <rect
         style="fill:#ecc416;fill-opacity:1;stroke:#000000;stroke-width:2.45019;stroke-miterlimit:10;stroke-dasharray:none;stroke-opacity:1;stop-color:#000000"
         id="rect6638"
         width="62.594925"
         height="13.631035"
         x="37.267418"
         y="82.710304"
         ry="4.3045382" />
      <circle
         style="fill:#f8ff00;fill-opacity:1;stroke:#000000;stroke-width:2.02321;stroke-miterlimit:10;stroke-dasharray:none;stroke-opacity:1;stop-color:#000000"
         id="path10582"
         cx="44.731525"
         cy="89.470772"
         r="2.8974016" />
      <g
         aria-label="T/N: YAY"
         id="text37560"
         style="font-size:9.16562px;line-height:1.25;stroke-width:0.0999998">
        <path
           d="m 53.551091,87.48256 v 3.589271 h 0.617606 q 0.331179,0 0.469917,0.129787 0.143213,0.125311 0.143213,0.331179 0,0.201394 -0.143213,0.33118 -0.138738,0.125311 -0.469917,0.125311 h -2.148192 q -0.33118,0 -0.474393,-0.125311 -0.138737,-0.129786 -0.138737,-0.335655 0,-0.201393 0.138737,-0.326704 0.143213,-0.129787 0.474393,-0.129787 h 0.613129 V 87.48256 h -0.993538 v 0.868228 q 0,0.331179 -0.129787,0.474392 -0.125311,0.138738 -0.33118,0.138738 -0.201393,0 -0.331179,-0.138738 -0.125312,-0.143213 -0.125312,-0.474392 v -1.79016 l 4.752876,0.0045 v 1.785685 q 0,0.331179 -0.129787,0.474392 -0.125311,0.138738 -0.33118,0.138738 -0.201393,0 -0.331179,-0.138738 -0.125311,-0.143213 -0.125311,-0.474392 V 87.48256 Z"
           style="font-weight:bold;font-family:'Courier New';-inkscape-font-specification:'Courier New Bold'"
           id="path1263" />
        <path
           d="m 60.496913,86.30553 -2.940338,6.337167 q -0.111885,0.237196 -0.201393,0.308802 -0.116361,0.09398 -0.28195,0.09398 -0.187967,0 -0.326705,-0.134262 -0.134262,-0.134262 -0.134262,-0.304327 0,-0.120836 0.10741,-0.353557 l 2.949289,-6.332692 q 0.111885,-0.237196 0.196917,-0.308802 0.120836,-0.09398 0.281951,-0.09398 0.187966,0 0.322228,0.134262 0.134262,0.129787 0.134262,0.299852 0,0.120836 -0.107409,0.353557 z"
           style="font-weight:bold;font-family:'Courier New';-inkscape-font-specification:'Courier New Bold'"
           id="path1265" />
        <path
           d="m 62.958383,88.297083 v 2.774748 h 0.33118 q 0.331179,0 0.469917,0.129787 0.143213,0.125311 0.143213,0.331179 0,0.201394 -0.143213,0.33118 -0.138738,0.125311 -0.469917,0.125311 H 62.08568 q -0.33118,0 -0.474392,-0.125311 -0.138738,-0.129786 -0.138738,-0.335655 0,-0.196918 0.138738,-0.326704 0.138737,-0.129787 0.429638,-0.129787 V 87.48256 h -0.143213 q -0.331179,0 -0.474392,-0.125311 -0.138738,-0.129787 -0.138738,-0.335655 0,-0.205868 0.138738,-0.33118 0.143213,-0.129786 0.474392,-0.129786 l 1.06067,0.0045 2.34511,3.678779 V 87.48256 h -0.33118 q -0.331179,0 -0.474392,-0.125311 -0.138738,-0.129787 -0.138738,-0.335655 0,-0.205868 0.138738,-0.33118 0.143213,-0.129786 0.474392,-0.129786 l 1.203883,0.0045 q 0.331179,0 0.469917,0.125311 0.143213,0.125312 0.143213,0.33118 0,0.201393 -0.138738,0.33118 -0.138737,0.129786 -0.425163,0.129786 v 4.506728 h -0.908506 z"
           style="font-weight:bold;font-family:'Courier New';-inkscape-font-specification:'Courier New Bold'"
           id="path1267" />
        <path
           d="m 70.29804,88.538755 q 0,0.259573 -0.183492,0.434114 -0.183491,0.17454 -0.50572,0.17454 -0.322229,0 -0.50572,-0.17454 -0.183492,-0.174541 -0.183492,-0.434114 0,-0.259574 0.183492,-0.434114 0.183491,-0.174541 0.50572,-0.174541 0.322229,0 0.50572,0.174541 0.183492,0.17454 0.183492,0.434114 z m 0.0089,3.002993 q 0,0.259574 -0.183491,0.434114 -0.183491,0.174541 -0.50572,0.174541 -0.322229,0 -0.50572,-0.174541 -0.183492,-0.17454 -0.183492,-0.434114 0,-0.259573 0.183492,-0.434114 0.183491,-0.17454 0.50572,-0.17454 0.322229,0 0.50572,0.17454 0.183491,0.174541 0.183491,0.434114 z"
           style="font-weight:bold;font-family:'Courier New';-inkscape-font-specification:'Courier New Bold'"
           id="path1269" />
        <path
           d="m 81.070328,89.71131 v 1.360521 h 0.617605 q 0.33118,0 0.469918,0.129787 0.143212,0.125311 0.143212,0.331179 0,0.201394 -0.143212,0.33118 -0.138738,0.125311 -0.469918,0.125311 h -2.152667 q -0.326704,0 -0.469917,-0.125311 -0.138738,-0.129786 -0.138738,-0.335655 0,-0.201393 0.138738,-0.326704 0.143213,-0.129787 0.469917,-0.129787 h 0.617605 V 89.71131 L 78.63571,87.48256 q -0.304327,0 -0.44754,-0.129786 -0.138737,-0.129787 -0.138737,-0.33118 0,-0.205868 0.138737,-0.33118 0.143213,-0.129786 0.474393,-0.129786 l 0.832424,0.0045 q 0.33118,0 0.469917,0.125311 0.143213,0.125312 0.143213,0.33118 0,0.308803 -0.362507,0.460966 l 0.868227,1.279965 0.850326,-1.279965 q -0.201393,-0.07608 -0.286425,-0.192442 -0.08503,-0.11636 -0.08503,-0.268524 0,-0.205868 0.138738,-0.33118 0.143212,-0.125311 0.474392,-0.129786 l 0.863752,0.0045 q 0.33118,0 0.469917,0.125311 0.143213,0.125312 0.143213,0.33118 0,0.205868 -0.143213,0.335655 -0.143212,0.125311 -0.465441,0.125311 z"
           style="font-weight:bold;font-family:'Courier New';-inkscape-font-specification:'Courier New Bold'"
           id="path1271" />
        <path
           d="M 87.228479,90.512406 H 84.99973 l -0.22377,0.559425 h 0.22377 q 0.331179,0 0.469917,0.129787 0.143213,0.125311 0.143213,0.331179 0,0.201394 -0.143213,0.33118 -0.138738,0.125311 -0.469917,0.125311 h -1.235211 q -0.331179,0 -0.469917,-0.125311 -0.143213,-0.129786 -0.143213,-0.335655 0,-0.205868 0.147689,-0.335655 0.147688,-0.129787 0.487818,-0.120836 l 1.441079,-3.589271 h -0.599703 q -0.33118,0 -0.474393,-0.125311 -0.138737,-0.129787 -0.138737,-0.335655 0,-0.205868 0.138737,-0.33118 0.143213,-0.129786 0.474393,-0.129786 l 1.982602,0.0045 1.825963,4.506728 q 0.322229,0 0.425163,0.07161 0.205869,0.147688 0.205869,0.389359 0,0.201394 -0.138738,0.33118 -0.138737,0.125311 -0.469917,0.125311 h -1.23521 q -0.33118,0 -0.474393,-0.125311 -0.138737,-0.129786 -0.138737,-0.335655 0,-0.201393 0.138737,-0.326704 0.143213,-0.129787 0.474393,-0.129787 h 0.22377 z m -0.380409,-0.917457 -0.738441,-1.817012 -0.742916,1.817012 z"
           style="font-weight:bold;font-family:'Courier New';-inkscape-font-specification:'Courier New Bold'"
           id="path1273" />
        <path
           d="m 92.070862,89.71131 v 1.360521 h 0.617606 q 0.331179,0 0.469917,0.129787 0.143212,0.125311 0.143212,0.331179 0,0.201394 -0.143212,0.33118 -0.138738,0.125311 -0.469917,0.125311 H 90.5358 q -0.326704,0 -0.469917,-0.125311 -0.138737,-0.129786 -0.138737,-0.335655 0,-0.201393 0.138737,-0.326704 0.143213,-0.129787 0.469917,-0.129787 h 0.617605 V 89.71131 l -1.51716,-2.22875 q -0.304328,0 -0.447541,-0.129786 -0.138737,-0.129787 -0.138737,-0.33118 0,-0.205868 0.138737,-0.33118 0.143213,-0.129786 0.474393,-0.129786 l 0.832424,0.0045 q 0.33118,0 0.469917,0.125311 0.143213,0.125312 0.143213,0.33118 0,0.308803 -0.362507,0.460966 l 0.868227,1.279965 0.850327,-1.279965 q -0.201393,-0.07608 -0.286426,-0.192442 -0.08503,-0.11636 -0.08503,-0.268524 0,-0.205868 0.138738,-0.33118 0.143213,-0.125311 0.474392,-0.129786 l 0.863752,0.0045 q 0.33118,0 0.469917,0.125311 0.143213,0.125312 0.143213,0.33118 0,0.205868 -0.143213,0.335655 -0.143212,0.125311 -0.465441,0.125311 z"
           style="font-weight:bold;font-family:'Courier New';-inkscape-font-specification:'Courier New Bold'"
           id="path1275" />
      </g>
    </g>
    <g
       aria-label="01111001"
       id="text3865"
       style="font-size:16.9333px;line-height:1.25;stroke-width:0.529165">
      <path
         d="m 60.104088,67.481867 v -2.480464 q 0,-2.166272 1.074867,-3.42304 1.083136,-1.256768 2.943484,-1.256768 1.860348,0 2.943484,1.256768 1.083136,1.256768 1.083136,3.42304 v 2.480464 q 0,2.166272 -1.083136,3.431308 -1.083136,1.256769 -2.943484,1.256769 -1.860348,0 -2.943484,-1.256769 -1.074867,-1.265036 -1.074867,-3.431308 z m 3.216334,-3.141921 v 3.803378 q 0,1.033527 0.802017,1.033527 0.810285,0 0.810285,-1.033527 v -3.803378 q 0,-1.033527 -0.810285,-1.033527 -0.802017,0 -0.802017,1.033527 z"
         style="font-weight:bold;font-family:'Bauhaus 93';-inkscape-font-specification:'Bauhaus 93 Bold';fill:#43c141"
         id="path1070" />
      <path
         d="m 75.35894,60.602714 v 11.28611 h -3.199798 v -11.28611 z"
         style="font-weight:bold;font-family:'Bauhaus 93';-inkscape-font-specification:'Bauhaus 93 Bold';fill:#43c141"
         id="path1072" />
      <path
         d="m 84.98314,60.602714 v 11.28611 h -3.199798 v -11.28611 z"
         style="font-weight:bold;font-family:'Bauhaus 93';-inkscape-font-specification:'Bauhaus 93 Bold';fill:#43c141"
         id="path1074" />
      <path
         d="m 94.607341,60.602714 v 11.28611 h -3.199798 v -11.28611 z"
         style="font-weight:bold;font-family:'Bauhaus 93';-inkscape-font-specification:'Bauhaus 93 Bold';fill:#43c141"
         id="path1076" />
      <path
         d="m 104.23154,60.602714 v 11.28611 h -3.1998 v -11.28611 z"
         style="font-weight:bold;font-family:'Bauhaus 93';-inkscape-font-specification:'Bauhaus 93 Bold';fill:#43c141"
         id="path1078" />
      <path
         d="m 108.22509,67.481867 v -2.480464 q 0,-2.166272 1.07486,-3.42304 1.08314,-1.256768 2.94349,-1.256768 1.86035,0 2.94348,1.256768 1.08314,1.256768 1.08314,3.42304 v 2.480464 q 0,2.166272 -1.08314,3.431308 -1.08313,1.256769 -2.94348,1.256769 -1.86035,0 -2.94349,-1.256769 -1.07486,-1.265036 -1.07486,-3.431308 z m 3.21633,-3.141921 v 3.803378 q 0,1.033527 0.80202,1.033527 0.81028,0 0.81028,-1.033527 v -3.803378 q 0,-1.033527 -0.81028,-1.033527 -0.80202,0 -0.80202,1.033527 z"
         style="font-weight:bold;font-family:'Bauhaus 93';-inkscape-font-specification:'Bauhaus 93 Bold';fill:#43c141"
         id="path1080" />
      <path
         d="m 117.84929,67.481867 v -2.480464 q 0,-2.166272 1.07487,-3.42304 1.08313,-1.256768 2.94348,-1.256768 1.86035,0 2.94348,1.256768 1.08314,1.256768 1.08314,3.42304 v 2.480464 q 0,2.166272 -1.08314,3.431308 -1.08313,1.256769 -2.94348,1.256769 -1.86035,0 -2.94348,-1.256769 -1.07487,-1.265036 -1.07487,-3.431308 z m 3.21633,-3.141921 v 3.803378 q 0,1.033527 0.80202,1.033527 0.81028,0 0.81028,-1.033527 v -3.803378 q 0,-1.033527 -0.81028,-1.033527 -0.80202,0 -0.80202,1.033527 z"
         style="font-weight:bold;font-family:'Bauhaus 93';-inkscape-font-specification:'Bauhaus 93 Bold';fill:#43c141"
         id="path1082" />
      <path
         d="m 133.10414,60.602714 v 11.28611 h -3.1998 v -11.28611 z"
         style="font-weight:bold;font-family:'Bauhaus 93';-inkscape-font-specification:'Bauhaus 93 Bold';fill:#43c141"
         id="path1084" />
    </g>
    <g
       aria-label="01100001"
       id="text3865-9"
       style="font-size:16.9333px;line-height:1.25;display:inline;stroke-width:0.529165">
      <path
         d="M 59.981243,82.960604 V 80.48014 q 0,-2.166272 1.074868,-3.42304 1.083135,-1.256769 2.943483,-1.256769 1.860348,0 2.943484,1.256769 1.083136,1.256768 1.083136,3.42304 v 2.480464 q 0,2.166272 -1.083136,3.431308 -1.083136,1.256769 -2.943484,1.256769 -1.860348,0 -2.943483,-1.256769 -1.074868,-1.265036 -1.074868,-3.431308 z m 3.216335,-3.141921 v 3.803378 q 0,1.033527 0.802016,1.033527 0.810285,0 0.810285,-1.033527 v -3.803378 q 0,-1.033527 -0.810285,-1.033527 -0.802016,0 -0.802016,1.033527 z"
         style="font-weight:bold;font-family:'Bauhaus 93';-inkscape-font-specification:'Bauhaus 93 Bold';fill:#43c141"
         id="path1053" />
      <path
         d="m 75.236096,76.081451 v 11.28611 h -3.199799 v -11.28611 z"
         style="font-weight:bold;font-family:'Bauhaus 93';-inkscape-font-specification:'Bauhaus 93 Bold';fill:#43c141"
         id="path1055" />
      <path
         d="m 84.860296,76.081451 v 11.28611 h -3.199799 v -11.28611 z"
         style="font-weight:bold;font-family:'Bauhaus 93';-inkscape-font-specification:'Bauhaus 93 Bold';fill:#43c141"
         id="path1057" />
      <path
         d="M 88.853843,82.960604 V 80.48014 q 0,-2.166272 1.074868,-3.42304 1.083136,-1.256769 2.943484,-1.256769 1.860348,0 2.943484,1.256769 1.083136,1.256768 1.083136,3.42304 v 2.480464 q 0,2.166272 -1.083136,3.431308 -1.083136,1.256769 -2.943484,1.256769 -1.860348,0 -2.943484,-1.256769 -1.074868,-1.265036 -1.074868,-3.431308 z m 3.216335,-3.141921 v 3.803378 q 0,1.033527 0.802017,1.033527 0.810285,0 0.810285,-1.033527 v -3.803378 q 0,-1.033527 -0.810285,-1.033527 -0.802017,0 -0.802017,1.033527 z"
         style="font-weight:bold;font-family:'Bauhaus 93';-inkscape-font-specification:'Bauhaus 93 Bold';fill:#43c141"
         id="path1059" />
      <path
         d="M 98.478042,82.960604 V 80.48014 q 0,-2.166272 1.074868,-3.42304 1.08314,-1.256769 2.94348,-1.256769 1.86035,0 2.94349,1.256769 1.08313,1.256768 1.08313,3.42304 v 2.480464 q 0,2.166272 -1.08313,3.431308 -1.08314,1.256769 -2.94349,1.256769 -1.86034,0 -2.94348,-1.256769 -1.074868,-1.265036 -1.074868,-3.431308 z m 3.216338,-3.141921 v 3.803378 q 0,1.033527 0.80201,1.033527 0.81029,0 0.81029,-1.033527 v -3.803378 q 0,-1.033527 -0.81029,-1.033527 -0.80201,0 -0.80201,1.033527 z"
         style="font-weight:bold;font-family:'Bauhaus 93';-inkscape-font-specification:'Bauhaus 93 Bold';fill:#43c141"
         id="path1061" />
      <path
         d="M 108.10224,82.960604 V 80.48014 q 0,-2.166272 1.07487,-3.42304 1.08313,-1.256769 2.94348,-1.256769 1.86035,0 2.94349,1.256769 1.08313,1.256768 1.08313,3.42304 v 2.480464 q 0,2.166272 -1.08313,3.431308 -1.08314,1.256769 -2.94349,1.256769 -1.86035,0 -2.94348,-1.256769 -1.07487,-1.265036 -1.07487,-3.431308 z m 3.21634,-3.141921 v 3.803378 q 0,1.033527 0.80201,1.033527 0.81029,0 0.81029,-1.033527 v -3.803378 q 0,-1.033527 -0.81029,-1.033527 -0.80201,0 -0.80201,1.033527 z"
         style="font-weight:bold;font-family:'Bauhaus 93';-inkscape-font-specification:'Bauhaus 93 Bold';fill:#43c141"
         id="path1063" />
      <path
         d="M 117.72644,82.960604 V 80.48014 q 0,-2.166272 1.07487,-3.42304 1.08314,-1.256769 2.94349,-1.256769 1.86034,0 2.94348,1.256769 1.08314,1.256768 1.08314,3.42304 v 2.480464 q 0,2.166272 -1.08314,3.431308 -1.08314,1.256769 -2.94348,1.256769 -1.86035,0 -2.94349,-1.256769 -1.07487,-1.265036 -1.07487,-3.431308 z m 3.21634,-3.141921 v 3.803378 q 0,1.033527 0.80202,1.033527 0.81028,0 0.81028,-1.033527 v -3.803378 q 0,-1.033527 -0.81028,-1.033527 -0.80202,0 -0.80202,1.033527 z"
         style="font-weight:bold;font-family:'Bauhaus 93';-inkscape-font-specification:'Bauhaus 93 Bold';fill:#43c141"
         id="path1065" />
      <path
         d="m 132.9813,76.081451 v 11.28611 h -3.1998 v -11.28611 z"
         style="font-weight:bold;font-family:'Bauhaus 93';-inkscape-font-specification:'Bauhaus 93 Bold';fill:#43c141"
         id="path1067" />
    </g>
    <g
       aria-label="01111001"
       id="text3865-3"
       style="font-size:16.9333px;line-height:1.25;display:inline;stroke-width:0.529165">
      <path
         d="m 59.981243,98.409769 v -2.480464 q 0,-2.166271 1.074868,-3.42304 1.083135,-1.256768 2.943483,-1.256768 1.860348,0 2.943484,1.256768 1.083136,1.256769 1.083136,3.42304 v 2.480464 q 0,2.166271 -1.083136,3.431311 -1.083136,1.25677 -2.943484,1.25677 -1.860348,0 -2.943483,-1.25677 -1.074868,-1.26504 -1.074868,-3.431311 z m 3.216335,-3.141921 v 3.803378 q 0,1.033524 0.802016,1.033524 0.810285,0 0.810285,-1.033524 v -3.803378 q 0,-1.033526 -0.810285,-1.033526 -0.802016,0 -0.802016,1.033526 z"
         style="font-weight:bold;font-family:'Bauhaus 93';-inkscape-font-specification:'Bauhaus 93 Bold';fill:#43c141"
         id="path1087" />
      <path
         d="M 75.236096,91.530616 V 102.81673 H 72.036297 V 91.530616 Z"
         style="font-weight:bold;font-family:'Bauhaus 93';-inkscape-font-specification:'Bauhaus 93 Bold';fill:#43c141"
         id="path1089" />
      <path
         d="M 84.860296,91.530616 V 102.81673 H 81.660497 V 91.530616 Z"
         style="font-weight:bold;font-family:'Bauhaus 93';-inkscape-font-specification:'Bauhaus 93 Bold';fill:#43c141"
         id="path1091" />
      <path
         d="M 94.484496,91.530616 V 102.81673 H 91.284698 V 91.530616 Z"
         style="font-weight:bold;font-family:'Bauhaus 93';-inkscape-font-specification:'Bauhaus 93 Bold';fill:#43c141"
         id="path1093" />
      <path
         d="m 104.1087,91.530616 v 11.286114 h -3.1998 V 91.530616 Z"
         style="font-weight:bold;font-family:'Bauhaus 93';-inkscape-font-specification:'Bauhaus 93 Bold';fill:#43c141"
         id="path1095" />
      <path
         d="m 108.10224,98.409769 v -2.480464 q 0,-2.166271 1.07487,-3.42304 1.08313,-1.256768 2.94348,-1.256768 1.86035,0 2.94349,1.256768 1.08313,1.256769 1.08313,3.42304 v 2.480464 q 0,2.166271 -1.08313,3.431311 -1.08314,1.25677 -2.94349,1.25677 -1.86035,0 -2.94348,-1.25677 -1.07487,-1.26504 -1.07487,-3.431311 z m 3.21634,-3.141921 v 3.803378 q 0,1.033524 0.80201,1.033524 0.81029,0 0.81029,-1.033524 v -3.803378 q 0,-1.033526 -0.81029,-1.033526 -0.80201,0 -0.80201,1.033526 z"
         style="font-weight:bold;font-family:'Bauhaus 93';-inkscape-font-specification:'Bauhaus 93 Bold';fill:#43c141"
         id="path1097" />
      <path
         d="m 117.72644,98.409769 v -2.480464 q 0,-2.166271 1.07487,-3.42304 1.08314,-1.256768 2.94349,-1.256768 1.86034,0 2.94348,1.256768 1.08314,1.256769 1.08314,3.42304 v 2.480464 q 0,2.166271 -1.08314,3.431311 -1.08314,1.25677 -2.94348,1.25677 -1.86035,0 -2.94349,-1.25677 -1.07487,-1.26504 -1.07487,-3.431311 z m 3.21634,-3.141921 v 3.803378 q 0,1.033524 0.80202,1.033524 0.81028,0 0.81028,-1.033524 v -3.803378 q 0,-1.033526 -0.81028,-1.033526 -0.80202,0 -0.80202,1.033526 z"
         style="font-weight:bold;font-family:'Bauhaus 93';-inkscape-font-specification:'Bauhaus 93 Bold';fill:#43c141"
         id="path1099" />
      <path
         d="m 132.9813,91.530616 v 11.286114 h -3.1998 V 91.530616 Z"
         style="font-weight:bold;font-family:'Bauhaus 93';-inkscape-font-specification:'Bauhaus 93 Bold';fill:#43c141"
         id="path1101" />
    </g>
    <text
       xml:space="preserve"
       style="font-style:normal;font-weight:normal;font-size:10.5833px;line-height:1.25;font-family:sans-serif;fill:#000000;fill-opacity:1;stroke:none;stroke-width:0.264583"
       x="93.005753"
       y="86.901512"
       id="text31593"><tspan
         sodipodi:role="line"
         id="tspan31591"
         style="stroke-width:0.264583" /></text>
  </g>
</svg>
