<?xml version="1.0" encoding="UTF-8" standalone="no"?>
<!-- Created with Inkscape (http://www.inkscape.org/) -->

<svg
   width="120.16981mm"
   height="109.99599mm"
   viewBox="0 0 120.16981 109.996"
   version="1.1"
   id="svg5"
   inkscape:version="1.1.2 (b8e25be833, 2022-02-05)"
   sodipodi:docname="nobg_draw_computer.svg"
   xmlns:inkscape="http://www.inkscape.org/namespaces/inkscape"
   xmlns:sodipodi="http://sodipodi.sourceforge.net/DTD/sodipodi-0.dtd"
   xmlns="http://www.w3.org/2000/svg"
   xmlns:svg="http://www.w3.org/2000/svg">
  <sodipodi:namedview
     id="namedview7"
     pagecolor="#ffffff"
     bordercolor="#666666"
     borderopacity="1.0"
     inkscape:pageshadow="2"
     inkscape:pageopacity="0.0"
     inkscape:pagecheckerboard="0"
     inkscape:document-units="mm"
     showgrid="false"
     inkscape:zoom="1.0469406"
     inkscape:cx="55.877096"
     inkscape:cy="208.22576"
     inkscape:window-width="1920"
     inkscape:window-height="1017"
     inkscape:window-x="-8"
     inkscape:window-y="-8"
     inkscape:window-maximized="1"
     inkscape:current-layer="g10668"
     inkscape:snap-bbox="true"
     inkscape:bbox-paths="true"
     inkscape:bbox-nodes="true"
     inkscape:snap-bbox-edge-midpoints="true"
     inkscape:snap-bbox-midpoints="true"
     inkscape:snap-center="true"
     inkscape:snap-text-baseline="true"
     inkscape:snap-page="true"
     inkscape:snap-object-midpoints="true"
     inkscape:snap-midpoints="true"
     inkscape:snap-smooth-nodes="true"
     inkscape:snap-intersection-paths="true"
     inkscape:object-paths="true">
    <inkscape:grid
       type="xygrid"
       id="grid6350"
       originx="-36.396368"
       originy="-39.137345" />
  </sodipodi:namedview>
  <defs
     id="defs2">
    <clipPath
       clipPathUnits="userSpaceOnUse"
       id="clipPath6155">
      <circle
         style="display:inline;fill:none;stroke:#000000;stroke-width:2.47567;stroke-miterlimit:10;stroke-dasharray:none;stroke-opacity:1;stop-color:#000000"
         id="circle6157"
         cx="105.7906"
         cy="136.88448"
         r="71.49231" />
    </clipPath>
    <clipPath
       clipPathUnits="userSpaceOnUse"
       id="clipPath6159">
      <circle
         style="display:inline;fill:none;stroke:#000000;stroke-width:2.47567;stroke-miterlimit:10;stroke-dasharray:none;stroke-opacity:1;stop-color:#000000"
         id="circle6161"
         cx="105.7906"
         cy="136.88448"
         r="71.49231" />
    </clipPath>
    <clipPath
       clipPathUnits="userSpaceOnUse"
       id="clipPath6163">
      <circle
         style="display:inline;fill:none;stroke:#000000;stroke-width:2.47567;stroke-miterlimit:10;stroke-dasharray:none;stroke-opacity:1;stop-color:#000000"
         id="circle6165"
         cx="105.7906"
         cy="136.88448"
         r="71.49231" />
    </clipPath>
    <clipPath
       clipPathUnits="userSpaceOnUse"
       id="clipPath6155-2">
      <circle
         style="display:inline;fill:none;stroke:#000000;stroke-width:2.47567;stroke-miterlimit:10;stroke-dasharray:none;stroke-opacity:1;stop-color:#000000"
         id="circle6157-7"
         cx="105.7906"
         cy="136.88448"
         r="71.49231" />
    </clipPath>
    <clipPath
       clipPathUnits="userSpaceOnUse"
       id="clipPath6159-4">
      <circle
         style="display:inline;fill:none;stroke:#000000;stroke-width:2.47567;stroke-miterlimit:10;stroke-dasharray:none;stroke-opacity:1;stop-color:#000000"
         id="circle6161-0"
         cx="105.7906"
         cy="136.88448"
         r="71.49231" />
    </clipPath>
  </defs>
  <g
     inkscape:groupmode="layer"
     id="layer2"
     inkscape:label="bg"
     style="display:inline"
     transform="translate(-73.113113,-107.10289)" />
  <g
     inkscape:groupmode="layer"
     id="layer6"
     inkscape:label="computer"
     style="display:inline"
     transform="translate(-36.396367,-39.137338)">
    <g
       id="g10668"
       transform="matrix(1.8474837,0,0,1.8474837,-30.191225,-31.119061)">
      <rect
         style="fill:#b0ede9;fill-opacity:1;stroke:#000000;stroke-width:2.5;stroke-miterlimit:10;stroke-dasharray:none;stroke-opacity:1;stop-color:#000000"
         id="rect6394"
         width="62.545124"
         height="43.60289"
         x="37.292316"
         y="39.278156"
         ry="8.9350185" />
      <rect
         style="fill:#e6f5f4;fill-opacity:1;stroke:#000000;stroke-width:2.5;stroke-miterlimit:10;stroke-dasharray:none;stroke-opacity:1;stop-color:#000000"
         id="rect6394-1"
         width="50.516277"
         height="30.954645"
         x="43.306858"
         y="45.60228"
         ry="6.3431649" />
      <rect
         style="fill:#b0ede9;fill-opacity:1;stroke:#000000;stroke-width:2.45019;stroke-miterlimit:10;stroke-dasharray:none;stroke-opacity:1;stop-color:#000000"
         id="rect6638"
         width="62.594868"
         height="13.631035"
         x="37.267418"
         y="82.710304"
         ry="4.3045382" />
      <circle
         style="fill:#e6f5f4;fill-opacity:1;stroke:#000000;stroke-width:2.02321;stroke-miterlimit:10;stroke-dasharray:none;stroke-opacity:1;stop-color:#000000"
         id="path10582"
         cx="44.731525"
         cy="89.470772"
         r="2.8974016" />
      <g
         aria-label="01101000"
         id="text3865"
         style="font-size:9.1656px;line-height:1.25;display:inline;fill:#000000;stroke-width:0.286425;fill-opacity:1">
        <path
           d="m 48.874766,53.370392 v -1.342617 q 0,-1.172552 0.581801,-1.852812 0.586276,-0.680259 1.593239,-0.680259 1.006963,0 1.593239,0.680259 0.586276,0.68026 0.586276,1.852812 v 1.342617 q 0,1.172553 -0.586276,1.857287 -0.586276,0.68026 -1.593239,0.68026 -1.006963,0 -1.593239,-0.68026 -0.581801,-0.684734 -0.581801,-1.857287 z m 1.740927,-1.700648 v 2.05868 q 0,0.559423 0.434113,0.559423 0.438588,0 0.438588,-0.559423 v -2.05868 q 0,-0.559424 -0.438588,-0.559424 -0.434113,0 -0.434113,0.559424 z"
           style="font-weight:bold;font-family:'Bauhaus 93';-inkscape-font-specification:'Bauhaus 93 Bold';fill:#000000;fill-opacity:1"
           id="path15756" />
        <path
           d="m 57.131861,49.646867 v 6.108908 h -1.731976 v -6.108908 z"
           style="font-weight:bold;font-family:'Bauhaus 93';-inkscape-font-specification:'Bauhaus 93 Bold';fill:#000000;fill-opacity:1"
           id="path15758" />
        <path
           d="m 62.341216,49.646867 v 6.108908 H 60.60924 v -6.108908 z"
           style="font-weight:bold;font-family:'Bauhaus 93';-inkscape-font-specification:'Bauhaus 93 Bold';fill:#000000;fill-opacity:1"
           id="path15760" />
        <path
           d="m 64.502829,53.370392 v -1.342617 q 0,-1.172552 0.581801,-1.852812 0.586276,-0.680259 1.593239,-0.680259 1.006963,0 1.593239,0.680259 0.586276,0.68026 0.586276,1.852812 v 1.342617 q 0,1.172553 -0.586276,1.857287 -0.586276,0.68026 -1.593239,0.68026 -1.006963,0 -1.593239,-0.68026 -0.581801,-0.684734 -0.581801,-1.857287 z m 1.740927,-1.700648 v 2.05868 q 0,0.559423 0.434113,0.559423 0.438588,0 0.438588,-0.559423 v -2.05868 q 0,-0.559424 -0.438588,-0.559424 -0.434113,0 -0.434113,0.559424 z"
           style="font-weight:bold;font-family:'Bauhaus 93';-inkscape-font-specification:'Bauhaus 93 Bold';fill:#000000;fill-opacity:1"
           id="path15762" />
        <path
           d="m 72.759925,49.646867 v 6.108908 h -1.731976 v -6.108908 z"
           style="font-weight:bold;font-family:'Bauhaus 93';-inkscape-font-specification:'Bauhaus 93 Bold';fill:#000000;fill-opacity:1"
           id="path15764" />
        <path
           d="m 74.921538,53.370392 v -1.342617 q 0,-1.172552 0.581801,-1.852812 0.586276,-0.680259 1.593239,-0.680259 1.006963,0 1.593239,0.680259 0.586276,0.68026 0.586276,1.852812 v 1.342617 q 0,1.172553 -0.586276,1.857287 -0.586276,0.68026 -1.593239,0.68026 -1.006963,0 -1.593239,-0.68026 -0.581801,-0.684734 -0.581801,-1.857287 z m 1.740927,-1.700648 v 2.05868 q 0,0.559423 0.434113,0.559423 0.438588,0 0.438588,-0.559423 v -2.05868 q 0,-0.559424 -0.438588,-0.559424 -0.434113,0 -0.434113,0.559424 z"
           style="font-weight:bold;font-family:'Bauhaus 93';-inkscape-font-specification:'Bauhaus 93 Bold';fill:#000000;fill-opacity:1"
           id="path15766" />
        <path
           d="m 80.130893,53.370392 v -1.342617 q 0,-1.172552 0.5818,-1.852812 0.586276,-0.680259 1.593239,-0.680259 1.006963,0 1.593239,0.680259 0.586277,0.68026 0.586277,1.852812 v 1.342617 q 0,1.172553 -0.586277,1.857287 -0.586276,0.68026 -1.593239,0.68026 -1.006963,0 -1.593239,-0.68026 -0.5818,-0.684734 -0.5818,-1.857287 z m 1.740926,-1.700648 v 2.05868 q 0,0.559423 0.434113,0.559423 0.438589,0 0.438589,-0.559423 v -2.05868 q 0,-0.559424 -0.438589,-0.559424 -0.434113,0 -0.434113,0.559424 z"
           style="font-weight:bold;font-family:'Bauhaus 93';-inkscape-font-specification:'Bauhaus 93 Bold';fill:#000000;fill-opacity:1"
           id="path15768" />
        <path
           d="m 85.340247,53.370392 v -1.342617 q 0,-1.172552 0.581801,-1.852812 0.586276,-0.680259 1.593239,-0.680259 1.006963,0 1.593239,0.680259 0.586276,0.68026 0.586276,1.852812 v 1.342617 q 0,1.172553 -0.586276,1.857287 -0.586276,0.68026 -1.593239,0.68026 -1.006963,0 -1.593239,-0.68026 -0.581801,-0.684734 -0.581801,-1.857287 z m 1.740927,-1.700648 v 2.05868 q 0,0.559423 0.434113,0.559423 0.438588,0 0.438588,-0.559423 v -2.05868 q 0,-0.559424 -0.438588,-0.559424 -0.434113,0 -0.434113,0.559424 z"
           style="font-weight:bold;font-family:'Bauhaus 93';-inkscape-font-specification:'Bauhaus 93 Bold';fill:#000000;fill-opacity:1"
           id="path15770" />
      </g>
      <g
         aria-label="01101101"
         id="text3865-9"
         style="font-size:9.1656px;line-height:1.25;display:inline;fill:#000000;stroke-width:0.286425;fill-opacity:1">
        <path
           d="m 48.808268,61.748673 v -1.342617 q 0,-1.172553 0.581801,-1.852812 0.586276,-0.680259 1.593239,-0.680259 1.006963,0 1.593239,0.680259 0.586276,0.680259 0.586276,1.852812 v 1.342617 q 0,1.172552 -0.586276,1.857287 -0.586276,0.680259 -1.593239,0.680259 -1.006963,0 -1.593239,-0.680259 -0.581801,-0.684735 -0.581801,-1.857287 z m 1.740927,-1.700648 v 2.058679 q 0,0.559424 0.434113,0.559424 0.438588,0 0.438588,-0.559424 v -2.058679 q 0,-0.559424 -0.438588,-0.559424 -0.434113,0 -0.434113,0.559424 z"
           style="font-weight:bold;font-family:'Bauhaus 93';-inkscape-font-specification:'Bauhaus 93 Bold';fill:#000000;fill-opacity:1"
           id="path15773" />
        <path
           d="m 57.065364,58.025148 v 6.108908 h -1.731976 v -6.108908 z"
           style="font-weight:bold;font-family:'Bauhaus 93';-inkscape-font-specification:'Bauhaus 93 Bold';fill:#000000;fill-opacity:1"
           id="path15775" />
        <path
           d="m 62.274718,58.025148 v 6.108908 h -1.731976 v -6.108908 z"
           style="font-weight:bold;font-family:'Bauhaus 93';-inkscape-font-specification:'Bauhaus 93 Bold';fill:#000000;fill-opacity:1"
           id="path15777" />
        <path
           d="m 64.436332,61.748673 v -1.342617 q 0,-1.172553 0.5818,-1.852812 0.586276,-0.680259 1.593239,-0.680259 1.006963,0 1.593239,0.680259 0.586277,0.680259 0.586277,1.852812 v 1.342617 q 0,1.172552 -0.586277,1.857287 -0.586276,0.680259 -1.593239,0.680259 -1.006963,0 -1.593239,-0.680259 -0.5818,-0.684735 -0.5818,-1.857287 z m 1.740926,-1.700648 v 2.058679 q 0,0.559424 0.434113,0.559424 0.438589,0 0.438589,-0.559424 v -2.058679 q 0,-0.559424 -0.438589,-0.559424 -0.434113,0 -0.434113,0.559424 z"
           style="font-weight:bold;font-family:'Bauhaus 93';-inkscape-font-specification:'Bauhaus 93 Bold';fill:#000000;fill-opacity:1"
           id="path15779" />
        <path
           d="m 72.693427,58.025148 v 6.108908 h -1.731976 v -6.108908 z"
           style="font-weight:bold;font-family:'Bauhaus 93';-inkscape-font-specification:'Bauhaus 93 Bold';fill:#000000;fill-opacity:1"
           id="path15781" />
        <path
           d="m 77.902781,58.025148 v 6.108908 h -1.731976 v -6.108908 z"
           style="font-weight:bold;font-family:'Bauhaus 93';-inkscape-font-specification:'Bauhaus 93 Bold';fill:#000000;fill-opacity:1"
           id="path15783" />
        <path
           d="m 80.064395,61.748673 v -1.342617 q 0,-1.172553 0.581801,-1.852812 0.586276,-0.680259 1.593239,-0.680259 1.006962,0 1.593239,0.680259 0.586276,0.680259 0.586276,1.852812 v 1.342617 q 0,1.172552 -0.586276,1.857287 -0.586277,0.680259 -1.593239,0.680259 -1.006963,0 -1.593239,-0.680259 -0.581801,-0.684735 -0.581801,-1.857287 z m 1.740927,-1.700648 v 2.058679 q 0,0.559424 0.434113,0.559424 0.438588,0 0.438588,-0.559424 v -2.058679 q 0,-0.559424 -0.438588,-0.559424 -0.434113,0 -0.434113,0.559424 z"
           style="font-weight:bold;font-family:'Bauhaus 93';-inkscape-font-specification:'Bauhaus 93 Bold';fill:#000000;fill-opacity:1"
           id="path15785" />
        <path
           d="m 88.32149,58.025148 v 6.108908 h -1.731976 v -6.108908 z"
           style="font-weight:bold;font-family:'Bauhaus 93';-inkscape-font-specification:'Bauhaus 93 Bold';fill:#000000;fill-opacity:1"
           id="path15787" />
      </g>
      <g
         aria-label="01101101"
         id="text3865-3"
         style="font-size:9.1656px;line-height:1.25;display:inline;fill:#000000;stroke-width:0.286425;fill-opacity:1">
        <path
           d="M 48.808268,70.110947 V 68.76833 q 0,-1.172552 0.581801,-1.852812 0.586276,-0.680259 1.593239,-0.680259 1.006963,0 1.593239,0.680259 0.586276,0.68026 0.586276,1.852812 v 1.342617 q 0,1.172552 -0.586276,1.857287 -0.586276,0.68026 -1.593239,0.68026 -1.006963,0 -1.593239,-0.68026 -0.581801,-0.684735 -0.581801,-1.857287 z m 1.740927,-1.700648 v 2.058679 q 0,0.559424 0.434113,0.559424 0.438588,0 0.438588,-0.559424 v -2.058679 q 0,-0.559424 -0.438588,-0.559424 -0.434113,0 -0.434113,0.559424 z"
           style="font-weight:bold;font-family:'Bauhaus 93';-inkscape-font-specification:'Bauhaus 93 Bold';fill:#000000;fill-opacity:1"
           id="path15790" />
        <path
           d="M 57.065364,66.387422 V 72.49633 H 55.333388 V 66.387422 Z"
           style="font-weight:bold;font-family:'Bauhaus 93';-inkscape-font-specification:'Bauhaus 93 Bold';fill:#000000;fill-opacity:1"
           id="path15792" />
        <path
           d="M 62.274718,66.387422 V 72.49633 H 60.542742 V 66.387422 Z"
           style="font-weight:bold;font-family:'Bauhaus 93';-inkscape-font-specification:'Bauhaus 93 Bold';fill:#000000;fill-opacity:1"
           id="path15794" />
        <path
           d="M 64.436332,70.110947 V 68.76833 q 0,-1.172552 0.5818,-1.852812 0.586276,-0.680259 1.593239,-0.680259 1.006963,0 1.593239,0.680259 0.586277,0.68026 0.586277,1.852812 v 1.342617 q 0,1.172552 -0.586277,1.857287 -0.586276,0.68026 -1.593239,0.68026 -1.006963,0 -1.593239,-0.68026 -0.5818,-0.684735 -0.5818,-1.857287 z m 1.740926,-1.700648 v 2.058679 q 0,0.559424 0.434113,0.559424 0.438589,0 0.438589,-0.559424 v -2.058679 q 0,-0.559424 -0.438589,-0.559424 -0.434113,0 -0.434113,0.559424 z"
           style="font-weight:bold;font-family:'Bauhaus 93';-inkscape-font-specification:'Bauhaus 93 Bold';fill:#000000;fill-opacity:1"
           id="path15796" />
        <path
           d="M 72.693427,66.387422 V 72.49633 H 70.961451 V 66.387422 Z"
           style="font-weight:bold;font-family:'Bauhaus 93';-inkscape-font-specification:'Bauhaus 93 Bold';fill:#000000;fill-opacity:1"
           id="path15798" />
        <path
           d="M 77.902781,66.387422 V 72.49633 H 76.170805 V 66.387422 Z"
           style="font-weight:bold;font-family:'Bauhaus 93';-inkscape-font-specification:'Bauhaus 93 Bold';fill:#000000;fill-opacity:1"
           id="path15800" />
        <path
           d="M 80.064395,70.110947 V 68.76833 q 0,-1.172552 0.581801,-1.852812 0.586276,-0.680259 1.593239,-0.680259 1.006962,0 1.593239,0.680259 0.586276,0.68026 0.586276,1.852812 v 1.342617 q 0,1.172552 -0.586276,1.857287 -0.586277,0.68026 -1.593239,0.68026 -1.006963,0 -1.593239,-0.68026 -0.581801,-0.684735 -0.581801,-1.857287 z m 1.740927,-1.700648 v 2.058679 q 0,0.559424 0.434113,0.559424 0.438588,0 0.438588,-0.559424 v -2.058679 q 0,-0.559424 -0.438588,-0.559424 -0.434113,0 -0.434113,0.559424 z"
           style="font-weight:bold;font-family:'Bauhaus 93';-inkscape-font-specification:'Bauhaus 93 Bold';fill:#000000;fill-opacity:1"
           id="path15802" />
        <path
           d="M 88.32149,66.387422 V 72.49633 H 86.589514 V 66.387422 Z"
           style="font-weight:bold;font-family:'Bauhaus 93';-inkscape-font-specification:'Bauhaus 93 Bold';fill:#000000;fill-opacity:1"
           id="path15804" />
      </g>
      <g
         aria-label="T/N: HMM"
         id="text37560"
         style="font-size:9.16562px;line-height:1.25;display:inline;stroke-width:0.1">
        <path
           d="m 52.824067,87.59504 v 3.589271 h 0.617606 q 0.331179,0 0.469917,0.129787 0.143213,0.125311 0.143213,0.33118 0,0.201393 -0.143213,0.331179 -0.138738,0.125311 -0.469917,0.125311 h -2.148192 q -0.33118,0 -0.474393,-0.125311 -0.138737,-0.129786 -0.138737,-0.335655 0,-0.201393 0.138737,-0.326704 0.143213,-0.129787 0.474393,-0.129787 H 51.90661 V 87.59504 h -0.993539 v 0.868228 q 0,0.33118 -0.129786,0.474392 -0.125311,0.138738 -0.33118,0.138738 -0.201393,0 -0.331179,-0.138738 -0.125312,-0.143212 -0.125312,-0.474392 v -1.79016 l 4.752876,0.0045 v 1.785685 q 0,0.33118 -0.129787,0.474392 -0.125311,0.138738 -0.33118,0.138738 -0.201393,0 -0.331179,-0.138738 -0.125312,-0.143212 -0.125312,-0.474392 V 87.59504 Z"
           style="font-weight:bold;font-family:'Courier New';-inkscape-font-specification:'Courier New Bold'"
           id="path15807" />
        <path
           d="m 59.769889,86.41801 -2.940338,6.337167 q -0.111885,0.237196 -0.201393,0.308803 -0.116361,0.09398 -0.28195,0.09398 -0.187967,0 -0.326705,-0.134262 -0.134262,-0.134262 -0.134262,-0.304327 0,-0.120836 0.10741,-0.353557 l 2.949289,-6.332691 q 0.111885,-0.237197 0.196917,-0.308803 0.120836,-0.09398 0.281951,-0.09398 0.187966,0 0.322228,0.134262 0.134262,0.129786 0.134262,0.299851 0,0.120836 -0.107409,0.353557 z"
           style="font-weight:bold;font-family:'Courier New';-inkscape-font-specification:'Courier New Bold'"
           id="path15809" />
        <path
           d="m 62.231359,88.409563 v 2.774748 h 0.33118 q 0.331179,0 0.469917,0.129787 0.143212,0.125311 0.143212,0.33118 0,0.201393 -0.143212,0.331179 -0.138738,0.125311 -0.469917,0.125311 h -1.203883 q -0.33118,0 -0.474393,-0.125311 -0.138737,-0.129786 -0.138737,-0.335655 0,-0.196917 0.138737,-0.326704 0.138738,-0.129787 0.429639,-0.129787 V 87.59504 h -0.143213 q -0.33118,0 -0.474392,-0.125311 -0.138738,-0.129786 -0.138738,-0.335655 0,-0.205868 0.138738,-0.331179 0.143212,-0.129787 0.474392,-0.129787 l 1.06067,0.0045 2.34511,3.678779 V 87.59504 h -0.33118 q -0.33118,0 -0.474392,-0.125311 -0.138738,-0.129786 -0.138738,-0.335655 0,-0.205868 0.138738,-0.331179 0.143212,-0.129787 0.474392,-0.129787 l 1.203883,0.0045 q 0.331179,0 0.469917,0.125312 0.143213,0.125311 0.143213,0.331179 0,0.201393 -0.138738,0.33118 -0.138737,0.129786 -0.425163,0.129786 v 4.506728 h -0.908506 z"
           style="font-weight:bold;font-family:'Courier New';-inkscape-font-specification:'Courier New Bold'"
           id="path15811" />
        <path
           d="m 69.571016,88.651235 q 0,0.259573 -0.183492,0.434114 -0.183491,0.17454 -0.50572,0.17454 -0.322229,0 -0.50572,-0.17454 -0.183492,-0.174541 -0.183492,-0.434114 0,-0.259573 0.183492,-0.434114 0.183491,-0.174541 0.50572,-0.174541 0.322229,0 0.50572,0.174541 0.183492,0.174541 0.183492,0.434114 z m 0.0089,3.002993 q 0,0.259574 -0.183491,0.434114 -0.183492,0.174541 -0.50572,0.174541 -0.322229,0 -0.505721,-0.174541 -0.183491,-0.17454 -0.183491,-0.434114 0,-0.259573 0.183491,-0.434113 0.183492,-0.174541 0.505721,-0.174541 0.322228,0 0.50572,0.174541 0.183491,0.17454 0.183491,0.434113 z"
           style="font-weight:bold;font-family:'Courier New';-inkscape-font-specification:'Courier New Bold'"
           id="path15813" />
        <path
           d="m 80.884828,89.855118 h -1.960226 v 1.329193 h 0.143213 q 0.33118,0 0.469917,0.129787 0.143213,0.125311 0.143213,0.33118 0,0.201393 -0.143213,0.331179 -0.138737,0.125311 -0.469917,0.125311 H 77.94449 q -0.33118,0 -0.474393,-0.125311 -0.138737,-0.129786 -0.138737,-0.335655 0,-0.250622 0.219294,-0.38936 0.10741,-0.07161 0.456491,-0.06713 V 87.59504 q -0.241671,-0.02238 -0.366983,-0.147688 -0.120835,-0.125311 -0.120835,-0.313278 0,-0.205868 0.138737,-0.331179 0.143213,-0.129787 0.474392,-0.129787 l 0.935359,0.0045 q 0.33118,0 0.469917,0.125312 0.143213,0.125311 0.143213,0.331179 0,0.205869 -0.143213,0.335655 -0.138737,0.125311 -0.469917,0.125311 h -0.143213 v 1.34262 h 1.960226 v -1.34262 h -0.143213 q -0.33118,0 -0.474393,-0.125311 -0.138737,-0.129786 -0.138737,-0.335655 0,-0.205868 0.138737,-0.331179 0.143213,-0.129787 0.474393,-0.129787 l 0.935358,0.0045 q 0.33118,0 0.469917,0.125312 0.143213,0.125311 0.143213,0.331179 0,0.187967 -0.125311,0.313278 -0.120836,0.125311 -0.362507,0.147688 v 3.589271 q 0.353556,0 0.45649,0.06713 0.219295,0.138738 0.219295,0.393836 0,0.201393 -0.143213,0.331179 -0.138737,0.125311 -0.469917,0.125311 h -1.123325 q -0.33118,0 -0.474393,-0.125311 -0.138737,-0.129786 -0.138737,-0.335655 0,-0.201393 0.143213,-0.326704 0.143213,-0.129787 0.469917,-0.129787 h 0.143213 z"
           style="font-weight:bold;font-family:'Courier New';-inkscape-font-specification:'Courier New Bold'"
           id="path15815" />
        <path
           d="m 83.946001,88.449842 v 2.734469 h 0.33118 q 0.33118,0 0.469917,0.129787 0.143213,0.125311 0.143213,0.33118 0,0.201393 -0.143213,0.331179 -0.138737,0.125311 -0.469917,0.125311 h -1.203883 q -0.331179,0 -0.469917,-0.125311 -0.143212,-0.129786 -0.143212,-0.335655 0,-0.201393 0.138737,-0.326704 0.138737,-0.129787 0.429638,-0.129787 V 87.59504 q -0.241671,-0.02238 -0.366982,-0.147688 -0.120836,-0.125311 -0.120836,-0.313278 0,-0.205868 0.138737,-0.331179 0.143213,-0.129787 0.474393,-0.129787 l 1.006965,0.0045 1.248636,2.761322 1.22626,-2.765797 1.015916,0.0045 q 0.33118,0 0.469917,0.125312 0.143213,0.125311 0.143213,0.331179 0,0.187967 -0.125311,0.313278 -0.125312,0.125311 -0.362508,0.147688 v 3.589271 q 0.290901,0 0.429639,0.129787 0.138737,0.129787 0.138737,0.33118 0,0.201393 -0.143213,0.331179 -0.138737,0.125311 -0.469917,0.125311 h -1.208358 q -0.326704,0 -0.469917,-0.125311 -0.138737,-0.129786 -0.138737,-0.335655 0,-0.201393 0.138737,-0.326704 0.143213,-0.129787 0.469917,-0.129787 h 0.335655 v -2.734469 l -1.051719,2.363011 h -0.796621 z"
           style="font-weight:bold;font-family:'Courier New';-inkscape-font-specification:'Courier New Bold'"
           id="path15817" />
        <path
           d="m 89.446268,88.449842 v 2.734469 h 0.33118 q 0.33118,0 0.469917,0.129787 0.143213,0.125311 0.143213,0.33118 0,0.201393 -0.143213,0.331179 -0.138737,0.125311 -0.469917,0.125311 h -1.203883 q -0.331179,0 -0.469917,-0.125311 -0.143212,-0.129786 -0.143212,-0.335655 0,-0.201393 0.138737,-0.326704 0.138737,-0.129787 0.429638,-0.129787 V 87.59504 q -0.241671,-0.02238 -0.366982,-0.147688 -0.120836,-0.125311 -0.120836,-0.313278 0,-0.205868 0.138737,-0.331179 0.143213,-0.129787 0.474393,-0.129787 l 1.006965,0.0045 1.248636,2.761322 1.22626,-2.765797 1.015916,0.0045 q 0.33118,0 0.469917,0.125312 0.143213,0.125311 0.143213,0.331179 0,0.187967 -0.125311,0.313278 -0.125312,0.125311 -0.362508,0.147688 v 3.589271 q 0.290901,0 0.429639,0.129787 0.138737,0.129787 0.138737,0.33118 0,0.201393 -0.143213,0.331179 -0.138737,0.125311 -0.469917,0.125311 h -1.208358 q -0.326704,0 -0.469917,-0.125311 -0.138737,-0.129786 -0.138737,-0.335655 0,-0.201393 0.138737,-0.326704 0.143213,-0.129787 0.469917,-0.129787 h 0.335655 v -2.734469 l -1.051719,2.363011 h -0.796621 z"
           style="font-weight:bold;font-family:'Courier New';-inkscape-font-specification:'Courier New Bold'"
           id="path15819" />
      </g>
    </g>
  </g>
</svg>
