<?xml version="1.0" encoding="UTF-8" standalone="no"?>
<!-- Created with Inkscape (http://www.inkscape.org/) -->

<svg
   width="137.83786mm"
   height="137.83786mm"
   viewBox="0 0 137.83786 137.83786"
   version="1.1"
   id="svg5"
   inkscape:version="1.1.2 (b8e25be833, 2022-02-05)"
   sodipodi:docname="rock.svg"
   xmlns:inkscape="http://www.inkscape.org/namespaces/inkscape"
   xmlns:sodipodi="http://sodipodi.sourceforge.net/DTD/sodipodi-0.dtd"
   xmlns="http://www.w3.org/2000/svg"
   xmlns:svg="http://www.w3.org/2000/svg">
  <sodipodi:namedview
     id="namedview7"
     pagecolor="#ffffff"
     bordercolor="#666666"
     borderopacity="1.0"
     inkscape:pageshadow="2"
     inkscape:pageopacity="0.0"
     inkscape:pagecheckerboard="0"
     inkscape:document-units="mm"
     showgrid="false"
     inkscape:zoom="4.1877624"
     inkscape:cx="308.39859"
     inkscape:cy="259.80462"
     inkscape:window-width="1920"
     inkscape:window-height="1017"
     inkscape:window-x="-8"
     inkscape:window-y="-8"
     inkscape:window-maximized="1"
     inkscape:current-layer="layer13"
     inkscape:snap-bbox="true"
     inkscape:bbox-paths="true"
     inkscape:bbox-nodes="true"
     inkscape:snap-bbox-edge-midpoints="true"
     inkscape:snap-bbox-midpoints="true"
     inkscape:snap-center="true"
     inkscape:snap-text-baseline="true"
     inkscape:snap-page="true"
     inkscape:snap-object-midpoints="true"
     inkscape:snap-midpoints="true"
     inkscape:snap-smooth-nodes="true"
     inkscape:snap-intersection-paths="true"
     inkscape:object-paths="true"
     showguides="false">
    <inkscape:grid
       type="xygrid"
       id="grid6350" />
  </sodipodi:namedview>
  <defs
     id="defs2">
    <clipPath
       clipPathUnits="userSpaceOnUse"
       id="clipPath6155">
      <circle
         style="display:inline;fill:none;stroke:#000000;stroke-width:2.47567;stroke-miterlimit:10;stroke-dasharray:none;stroke-opacity:1;stop-color:#000000"
         id="circle6157"
         cx="105.7906"
         cy="136.88448"
         r="71.49231" />
    </clipPath>
    <clipPath
       clipPathUnits="userSpaceOnUse"
       id="clipPath6159">
      <circle
         style="display:inline;fill:none;stroke:#000000;stroke-width:2.47567;stroke-miterlimit:10;stroke-dasharray:none;stroke-opacity:1;stop-color:#000000"
         id="circle6161"
         cx="105.7906"
         cy="136.88448"
         r="71.49231" />
    </clipPath>
    <clipPath
       clipPathUnits="userSpaceOnUse"
       id="clipPath6163">
      <circle
         style="display:inline;fill:none;stroke:#000000;stroke-width:2.47567;stroke-miterlimit:10;stroke-dasharray:none;stroke-opacity:1;stop-color:#000000"
         id="circle6165"
         cx="105.7906"
         cy="136.88448"
         r="71.49231" />
    </clipPath>
    <clipPath
       clipPathUnits="userSpaceOnUse"
       id="clipPath6155-2">
      <circle
         style="display:inline;fill:none;stroke:#000000;stroke-width:2.47567;stroke-miterlimit:10;stroke-dasharray:none;stroke-opacity:1;stop-color:#000000"
         id="circle6157-7"
         cx="105.7906"
         cy="136.88448"
         r="71.49231" />
    </clipPath>
    <clipPath
       clipPathUnits="userSpaceOnUse"
       id="clipPath6159-4">
      <circle
         style="display:inline;fill:none;stroke:#000000;stroke-width:2.47567;stroke-miterlimit:10;stroke-dasharray:none;stroke-opacity:1;stop-color:#000000"
         id="circle6161-0"
         cx="105.7906"
         cy="136.88448"
         r="71.49231" />
    </clipPath>
  </defs>
  <g
     inkscape:groupmode="layer"
     id="layer2"
     inkscape:label="bg"
     style="display:inline"
     transform="translate(-36.716746,-67.965548)">
    <path
       id="path6303"
       style="display:inline;fill:#e6f5f4;stroke:#000000;stroke-width:2.5;stroke-miterlimit:10;stroke-dasharray:none;stroke-opacity:1;stop-color:#000000"
       d="M 173.30461,136.88447 A 67.66893,67.66893 0 0 1 105.63568,204.55341 67.66893,67.66893 0 0 1 37.966746,136.88447 67.66893,67.66893 0 0 1 105.63568,69.215548 67.66893,67.66893 0 0 1 173.30461,136.88447 Z"
       clip-path="url(#clipPath6163)" />
  </g>
  <g
     inkscape:groupmode="layer"
     id="layer10"
     inkscape:label="rockout"
     style="display:inline" />
  <g
     inkscape:groupmode="layer"
     id="layer11"
     inkscape:label="rockoutears"
     style="display:inline" />
  <g
     inkscape:groupmode="layer"
     id="layer13"
     inkscape:label="grin"
     style="display:inline" />
  <g
     inkscape:groupmode="layer"
     id="layer12"
     inkscape:label="rockmouth"
     style="display:inline">
    <g
       id="g27788"
       transform="matrix(1.1303062,0,0,1.1303062,-13.666243,-4.2204575)">
      <path
         style="display:inline;fill:#b0ede9;fill-opacity:1;stroke:#000000;stroke-width:2.5;stroke-linecap:butt;stroke-linejoin:miter;stroke-miterlimit:4;stroke-dasharray:none;stroke-opacity:1"
         d="m 44.962197,53.648878 3.411727,-8.971576 6.008466,-11.427606 2.836747,-3.135413 14.18394,-6.918222 7.73957,-0.631801 8.59249,2.400844 7.13936,6.318012 4.991216,6.949814 2.906287,9.413838 0.44226,12.256943 -0.56862,5.43349 -0.28503,1.696991 -0.32422,2.9951 -0.14891,2.76316 -0.50545,3.41173 -1.389957,4.29625 -1.389957,4.327838 -0.442259,1.200419 -0.3159,1.168833 -2.40084,7.26571 -3.34855,3.980353 -6.44437,5.117615 -6.63391,3.28536 -9.09794,-0.56863 -9.66656,-4.35944 -9.603379,-5.307128 -7.076173,-12.95193 0.947702,-8.97157 z"
         id="path24983"
         sodipodi:nodetypes="cccccccccccccccccccccccccccccc" />
      <path
         style="fill:#b0ede9;fill-opacity:1;stroke:#000000;stroke-width:2.5;stroke-linecap:butt;stroke-linejoin:miter;stroke-miterlimit:4;stroke-dasharray:none;stroke-opacity:1"
         d="m 44.962196,53.648877 -0.867881,-1.334344 -1.965704,-0.491427 -1.652979,1.787004 -1.250902,7.862816 1.340252,12.687726 2.233756,1.295577 1.721199,-0.768369 z"
         id="path25855" />
      <path
         style="fill:#b0ede9;fill-opacity:1;stroke:#000000;stroke-width:2.5;stroke-linecap:butt;stroke-linejoin:miter;stroke-miterlimit:4;stroke-dasharray:none;stroke-opacity:1"
         d="m 102.64564,65.3372 1.09612,-0.451218 0.6318,1.074063 -1.07406,3.222185 -1.51236,4.287478 -1.93096,10.086001 -0.315902,2.685153 -1.696323,0.95666 3.538075,-10.99334 z"
         id="path25970" />
      <path
         style="fill:#74cdc7;fill-opacity:1;stroke:none;stroke-width:1;stroke-linecap:butt;stroke-linejoin:miter;stroke-miterlimit:4;stroke-dasharray:none;stroke-opacity:1"
         d="m 72.543217,72.976017 v 0 0 l 1.330139,-0.06616 1.848017,0.868727 1.737455,1.816428 -4.912256,-1.389962 z"
         id="path26200" />
      <path
         style="fill:#74cdc7;fill-opacity:1;stroke:none;stroke-width:1;stroke-linecap:butt;stroke-linejoin:miter;stroke-miterlimit:4;stroke-dasharray:none;stroke-opacity:1"
         d="m 80.412496,76.195223 1.800635,-1.13724 2.495614,-0.41067 0.963499,0.884521 0.07897,0.600209 -1.579501,0.268518 z"
         id="path26202" />
      <path
         style="fill:#74cdc7;fill-opacity:1;stroke:none;stroke-width:1;stroke-linecap:butt;stroke-linejoin:miter;stroke-miterlimit:4;stroke-dasharray:none;stroke-opacity:1"
         d="m 58.569044,51.599732 6.790614,-3.75271 8.354242,1.429604 2.54648,1.787004 c 0,0 -0.134025,1.161553 -0.402074,1.206228 -0.268052,0.04467 -3.752708,-0.759479 -4.422836,-0.938178 -0.670126,-0.1787 -8.443593,-0.893501 -8.443593,-0.893501 z"
         id="path26212" />
      <path
         style="fill:#74cdc7;fill-opacity:1;stroke:none;stroke-width:1;stroke-linecap:butt;stroke-linejoin:miter;stroke-miterlimit:4;stroke-dasharray:none;stroke-opacity:1"
         d="m 86.937727,55.441788 -0.357399,-0.714801 3.574005,-1.295577 7.639441,0.714801 2.323106,2.859204 1.20623,3.037909 c 0,0 -3.082584,-2.501808 -3.216609,-2.680507 -0.134027,-0.1787 -6.075812,-1.295577 -6.075812,-1.295577 l -4.958937,-0.536102 z"
         id="path26214" />
      <path
         style="display:inline;fill:#74cdc7;fill-opacity:1;stroke:none;stroke-width:0.264583px;stroke-linecap:butt;stroke-linejoin:miter;stroke-opacity:1"
         d="m 65.075179,71.401162 -5.054412,1.76905 -2.211302,2.02176 -1.263603,4.86487 1.958584,-4.23307 2.527204,-1.64268 5.749389,-1.38996 -1.5795,-1.64269 z"
         id="path27191" />
      <path
         style="display:inline;fill:#74cdc7;fill-opacity:1;stroke:none;stroke-width:0.264583px;stroke-linecap:butt;stroke-linejoin:miter;stroke-opacity:1"
         d="m 90.747283,76.775911 1.263602,-0.18954 3.222191,3.285366 0.44226,3.474908 -2.65357,6.191652 1.70587,-6.949813 -2.527209,-3.85399 z"
         id="path27430" />
      <path
         style="fill:#e6f5f4;fill-opacity:1;stroke:none;stroke-width:1;stroke-linecap:butt;stroke-linejoin:miter;stroke-miterlimit:4;stroke-dasharray:none;stroke-opacity:1"
         d="m 61.726976,80.112393 7.518434,1.705861 c 0,0 7.265715,1.895404 7.644797,1.958586 0.379079,0.06318 7.139353,0.379079 7.139353,0.379079 l 5.117589,1.010883 -1.769044,1.137243 -2.590385,0.758161 -5.93893,0.06318 -6.191652,-1.895404 -4.61215,-1.389962 z"
         id="path25973" />
      <path
         style="fill:#e6f5f4;fill-opacity:1;stroke:none;stroke-width:1;stroke-linecap:butt;stroke-linejoin:miter;stroke-miterlimit:4;stroke-dasharray:none;stroke-opacity:1"
         d="m 62.411101,55.799188 4.64621,-1.250903 3.93141,1.027528 2.680504,2.54648 -4.288808,-0.223375 -5.226987,-1.250902 z"
         id="path25975" />
      <path
         style="fill:#e6f5f4;fill-opacity:1;stroke:none;stroke-width:1;stroke-linecap:butt;stroke-linejoin:miter;stroke-miterlimit:4;stroke-dasharray:none;stroke-opacity:1"
         d="m 86.178251,60.758125 3.261281,-0.938178 4.512186,0.491426 2.680504,2.412455 -2.769854,0.04468 -4.82491,-0.938178 z"
         id="path25977" />
    </g>
  </g>
</svg>
