<?xml version="1.0" encoding="UTF-8"?>
<!-- Created with Inkscape (http://www.inkscape.org/) -->
<svg width="210mm" height="297mm" version="1.1" viewBox="0 0 210 297" xmlns="http://www.w3.org/2000/svg">
 <g stroke-miterlimit="10">
  <path d="m173.3 136.88a67.669 67.669 0 0 1-67.669 67.669 67.669 67.669 0 0 1-67.669-67.669 67.669 67.669 0 0 1 67.669-67.669 67.669 67.669 0 0 1 67.669 67.669z" fill="#e6f5f4" stop-color="#000000" stroke-width=".87307"/>
  <path d="m122.29 118.66a16.854 16.854 0 0 1-16.854 16.854 16.854 16.854 0 0 1-16.854-16.854 16.854 16.854 0 0 1 16.854-16.854 16.854 16.854 0 0 1 16.854 16.854z" fill="#b0ede9" stop-color="#000000" stroke-width=".18731"/>
  <path d="m135.45 168.16a30.022 30.022 0 0 0-15.011-26 30.022 30.022 0 0 0-30.022 0 30.022 30.022 0 0 0-15.011 26h30.022z" fill="#b0ede9" stop-color="#000000" stroke-width=".231"/>
 </g>
</svg>
